<svg xmlns="http://www.w3.org/2000/svg" xmlns:xlink="http://www.w3.org/1999/xlink" width="400" height="400" viewBox="0 0 400 400"><defs><linearGradient id="gradient-21"><stop stop-color="#834f3a" offset="0"/><stop stop-color="#dba174" offset="0.5"/><stop stop-color="#834F3A" offset="1"/></linearGradient></defs>
<rect data-name="background" width="100%" height="100%" fill="#2c2e30"/><g data-name="watermark" class="watermark-logodesign" stroke="#ffffff" transform="translate(10, 320) scale(1.5) rotate(-45)" style="opacity:0.040000010281801224;"><path fill="#000000" d="M22.92,19.2q3.04,1.68,4.8,4.7t1.76,6.78t-1.76,6.78t-4.8,4.7t-6.68,1.68t-6.7-1.68t-4.84-4.7t-1.78-6.78t1.78-6.78t4.84-4.7t6.7-1.68t6.68,1.68z M11.14,21.74q-2.26,1.3-3.54,3.62t-1.28,5.32t1.28,5.32t3.54,3.6t5.1,1.28t5.08-1.28t3.52-3.6t1.28-5.32t-1.28-5.32t-3.54-3.62t-5.06-1.3q-2.84,0-5.1,1.3z M21.4,24.76l-1.8,2.32q-0.72-0.56-1.4-0.78t-1.48-0.22q-1.44,0-2.3,1.1t-0.86,3.46q0,2.32,0.82,3.44t2.26,1.12q0.96,0,1.74-0.3t1.54-0.9l1.64,2.44q-2.24,2.04-5.2,2.04q-3.2,0-5.08-2.04t-1.88-5.8q0-2.4,0.9-4.16t2.48-2.7t3.54-0.94q2.92,0,5.08,1.92z M41.2,20.32l0,22.96l10.96,0l-0.64,4.72l-16.2,0l0-27.68l5.88,0z M71.92,29.14q2.68,2.98,2.68,8.26q0,3.36-1.22,5.9t-3.52,3.94t-5.42,1.4q-4.76,0-7.46-2.98t-2.7-8.26q0-3.36,1.22-5.9t3.52-3.94t5.46-1.4q4.76,0,7.44,2.98z M61.26,32.1q-1.06,1.7-1.06,5.3t1.06,5.3t3.18,1.7t3.18-1.7t1.06-5.3t-1.04-5.3t-3.16-1.7q-2.16,0-3.22,1.7z M97.88,27.96q-2.08,0.8-6.12,0.8q2,0.88,2.96,2.18t0.96,3.26q0,2.04-1.06,3.66t-3.04,2.54t-4.62,0.92q-1.4,0-2.48-0.28q-0.8,0.52-0.8,1.4q0,0.64,0.5,1.02t1.94,0.38l3.24,0q2.36,0,4.14,0.78t2.76,2.16t0.98,3.14q0,3.24-2.78,5.06t-8.02,1.82q-3.76,0-5.94-0.78t-3.06-2.26t-0.88-3.72l5.08,0q0,1.04,0.4,1.66t1.46,0.92t3.06,0.3q2.76,0,3.86-0.68t1.1-1.92q0-1.12-0.84-1.72t-2.48-0.6l-3.12,0q-3.16,0-4.72-1.18t-1.56-2.98q0-1.12,0.66-2.18t1.82-1.78q-1.96-1.08-2.86-2.54t-0.9-3.5q0-2.32,1.14-4.06t3.2-2.68t4.7-0.94q3.28,0.08,5.4-0.56t4.52-2z M84.14,30.98q-0.94,1.02-0.94,2.78q0,1.8,0.94,2.84t2.58,1.04q1.72,0,2.6-1t0.88-2.96q0-3.72-3.52-3.72q-1.6,0-2.54,1.02z M117.04,29.14q2.68,2.98,2.68,8.26q0,3.36-1.22,5.9t-3.52,3.94t-5.42,1.4q-4.76,0-7.46-2.98t-2.7-8.26q0-3.36,1.22-5.9t3.52-3.94t5.46-1.4q4.76,0,7.44,2.98z M106.38,32.1q-1.06,1.7-1.06,5.3t1.06,5.3t3.18,1.7t3.18-1.7t1.06-5.3t-1.04-5.3t-3.16-1.7q-2.16,0-3.22,1.7z M141.78,23.26q3.9,2.94,3.9,10.78q0,7.68-3.82,10.82t-9.78,3.14l-7.92,0l0-27.68l7.24,0q6.48,0,10.38,2.94z M130.04,24.64l0,19.04l2.4,0q3.4,0,5.26-2.1t1.86-7.54q0-3.76-0.94-5.84t-2.5-2.82t-3.8-0.74l-2.28,0z M167.84,39.12l-13.24,0q0.28,2.88,1.56,4.08t3.48,1.2q1.36,0,2.56-0.44t2.6-1.4l2.36,3.2q-3.56,2.88-8.04,2.88q-5,0-7.68-3t-2.68-8.12q0-3.24,1.14-5.82t3.32-4.06t5.18-1.48q4.52,0,7.04,2.84t2.52,7.92q0,0.4-0.12,2.2z M162.32,35.32q0-5.28-3.8-5.28q-1.76,0-2.74,1.3t-1.18,4.22l7.72,0l0-0.24z M186.8,28.72l-2.16,3.24q-2.68-1.68-5.28-1.68q-1.4,0-2.16,0.52t-0.76,1.4q0,0.64,0.34,1.08t1.28,0.84t2.82,0.96q3.36,0.92,5,2.46t1.64,4.22q0,2.12-1.22,3.68t-3.3,2.38t-4.64,0.82q-2.68,0-4.88-0.82t-3.76-2.26l2.8-3.12q2.68,2.08,5.68,2.08q1.6,0,2.54-0.62t0.94-1.7q0-0.84-0.36-1.32t-1.32-0.9t-3-0.98q-3.2-0.88-4.74-2.5t-1.54-4.02q0-1.8,1.04-3.24t2.94-2.26t4.42-0.82q4.48,0,7.68,2.56z M196.92,26.8l0,21.2l-5.68,0l0-21.2l5.68,0z M196.54,16.82q0.98,0.94,0.98,2.38t-0.98,2.38t-2.5,0.94t-2.48-0.94t-0.96-2.38t0.96-2.38t2.48-0.94t2.5,0.94z M221.48,27.96q-2.08,0.8-6.12,0.8q2,0.88,2.96,2.18t0.96,3.26q0,2.04-1.06,3.66t-3.04,2.54t-4.62,0.92q-1.4,0-2.48-0.28q-0.8,0.52-0.8,1.4q0,0.64,0.5,1.02t1.94,0.38l3.24,0q2.36,0,4.14,0.78t2.76,2.16t0.98,3.14q0,3.24-2.78,5.06t-8.02,1.82q-3.76,0-5.94-0.78t-3.06-2.26t-0.88-3.72l5.08,0q0,1.04,0.4,1.66t1.46,0.92t3.06,0.3q2.76,0,3.86-0.68t1.1-1.92q0-1.12-0.84-1.72t-2.48-0.6l-3.12,0q-3.16,0-4.72-1.18t-1.56-2.98q0-1.12,0.66-2.18t1.82-1.78q-1.96-1.08-2.86-2.54t-0.9-3.5q0-2.32,1.14-4.06t3.2-2.68t4.7-0.94q3.28,0.08,5.4-0.56t4.52-2z M207.74,30.98q-0.94,1.02-0.94,2.78q0,1.8,0.94,2.84t2.58,1.04q1.72,0,2.6-1t0.88-2.96q0-3.72-3.52-3.72q-1.6,0-2.54,1.02z M240.48,27.86q1.56,1.7,1.56,4.7l0,15.44l-5.68,0l0-14.48q0-1.72-0.58-2.42t-1.74-0.7q-1.2,0-2.18,0.74t-1.9,2.22l0,14.64l-5.68,0l0-21.2l4.92,0l0.44,2.68q1.32-1.64,2.9-2.48t3.58-0.84q2.8,0,4.36,1.7z M251.84,42.8q1,1,1,2.4t-1,2.42t-2.44,1.02q-1.4,0-2.4-1.02t-1-2.42t1-2.4t2.4-1q1.44,0,2.44,1z M271.8,48l-1.56-6.2l-8.68,0l-1.56,6.2l-6.12,0l8.52-27.68l7.16,0l8.48,27.68l-6.24,0z M262.68,37.44l6.44,0l-3.24-12.76z M286.48,20.32l0,27.68l-5.88,0l0-27.68l5.88,0z"/></g><g data-name="icon" fill="url(#gradient-21)" data="id:7082090" transform="translate(4.612848787882525,133.50638842858532) scale(1.3509780685342885)">
  
 <path d="m48.652 8.0625c-24.223 0.71875-43.184 21.227-43.184 45.457v20.348c0 6.4258 5.2266 11.652 11.652 11.652h7.2617c0.86328 0 1.5625-0.69922 1.5625-1.5625v-29.875c0-0.86328-0.69922-1.5625-1.5625-1.5625h-7.2617c-3.3672 0-6.3984 1.4453-8.5273 3.7383v-3.6836c0-23.246 19.258-42.082 42.66-41.387 22.52 0.66797 40.152 19.734 40.152 42.266v2.8008c-2.1289-2.293-5.1602-3.7383-8.5273-3.7383h-7.2617c-0.86328 0-1.5625 0.69922-1.5625 1.5625v29.879c0 0.86328 0.69922 1.5625 1.5625 1.5625h7.2617c6.4258 0 11.652-5.2266 11.652-11.652v-21.293c0-25.004-20.711-45.258-45.879-44.512zm-31.531 47.582h5.6992v26.754h-5.6992c-4.7031 0-8.5273-3.8281-8.5273-8.5312v-9.6953c0-4.7031 3.8242-8.5273 8.5273-8.5273zm74.285 18.223c0 4.7031-3.8242 8.5273-8.5273 8.5273h-5.6992l-0.003907-26.75h5.6992c4.7031 0 8.5273 3.8242 8.5273 8.5273v4.7773z"/>
 <path d="m84.348 45.109c0.17969 0.82812 0.95703 1.3828 1.7891 1.2383 0.86719-0.14844 1.4609-0.98828 1.2734-1.8438-3.7656-17.602-19.254-30.211-37.41-30.211s-33.641 12.609-37.414 30.211c-0.18359 0.85938 0.41016 1.6953 1.2734 1.8477 0.83594 0.14453 1.6133-0.41016 1.7891-1.2383 3.4844-16.141 17.695-27.695 34.352-27.695s30.867 11.555 34.348 27.691z"/>
 <path d="m41.945 55.457c-0.86328 0-1.5625 0.69922-1.5625 1.5625v24c0 0.86328 0.69922 1.5625 1.5625 1.5625 0.86328 0 1.5625-0.69922 1.5625-1.5625v-24c0-0.86328-0.69922-1.5625-1.5625-1.5625z"/>
 <path d="m33.891 63.27c-0.86328 0-1.5625 0.69922-1.5625 1.5625v8.375c0 0.86328 0.69922 1.5625 1.5625 1.5625s1.5625-0.69922 1.5625-1.5625v-8.375c0-0.86328-0.69922-1.5625-1.5625-1.5625z"/>
 <path d="m50 47.645c-0.86328 0-1.5625 0.69922-1.5625 1.5625v39.625c0 0.86328 0.69922 1.5625 1.5625 1.5625s1.5625-0.69922 1.5625-1.5625v-39.625c0-0.86328-0.69922-1.5625-1.5625-1.5625z"/>
 <path d="m58.055 55.457c-0.86328 0-1.5625 0.69922-1.5625 1.5625v24c0 0.86328 0.69922 1.5625 1.5625 1.5625 0.86328 0 1.5625-0.69922 1.5625-1.5625v-24c0-0.86328-0.69922-1.5625-1.5625-1.5625z"/>
 <path d="m66.109 63.27c-0.86328 0-1.5625 0.69922-1.5625 1.5625v8.375c0 0.86328 0.69922 1.5625 1.5625 1.5625s1.5625-0.69922 1.5625-1.5625v-8.375c0-0.86328-0.69922-1.5625-1.5625-1.5625z"/>

  </g><g data-name="business_name" fill="#ffffff" data="id:334" transform="translate(157.62901549014228,130.97743036041928) scale(1.2875644910963546)"><path d="M8.12,51.48q-2.16,0-4.08-0.78t-3.1-2.38t-1.18-4q0-2.08,0.82-3.24t2.02-1.64t2.28-0.48q-1.08,1.16-1.64,2.56t-0.56,2.8q0,1.48,0.66,2.76t2.02,2.06t3.44,0.78q1.8,0,3.52-0.66t2.82-1.96t1.1-3.22q0-1.72-0.88-2.96t-2.26-2.2t-2.94-1.84t-2.94-1.86t-2.26-2.26t-0.88-3.08q0-1.68,0.8-3.52t2.3-3.48t3.6-2.66t4.7-1.02q2.36,0,3.28,1.14t0.92,2.86q0,1.44-0.5,3.1t-1.22,3.16t-1.36,2.54q-0.72-0.16-1.02-0.62t-0.3-1.1q0-0.84,0.36-1.92t0.82-2.24t0.82-2.26t0.36-1.98q0-0.8-0.48-1.26t-1.76-0.46q-1.88,0-3.48,0.88t-2.8,2.26t-1.86,2.9t-0.66,2.76q0,1.48,0.86,2.54t2.22,1.92t2.9,1.72t2.9,1.9t2.22,2.46t0.86,3.46q0,2.08-0.92,3.66t-2.46,2.66t-3.38,1.64t-3.68,0.56z M18.92,59.2q-0.32,0-0.62-0.34t-0.46-0.72t-0.16-0.46q0.56-1.96,1.1-3.5t1.08-3.16t1.06-3.8t1.08-5.42t1.12-8.04q0.04-0.36,0.16-0.52t0.6-0.16q1.04,0,1.48,0.58t0.44,1.26q0,0.56-0.24,2t-0.68,3.4q0.68-1.32,1.7-2.68t2.34-2.28t2.88-0.92q1.76,0,2.9,1.26t1.14,3.3q0,1.56-0.7,3.3t-1.96,3.28t-2.98,2.5t-3.8,0.96q-1.04,0-1.68-0.24t-0.64-0.48q0-0.16,0.3-0.18t0.7-0.02q1.6,0,3.06-0.78t2.62-2.06t1.82-2.84t0.66-3.08q0-1.28-0.54-2.18t-1.74-0.9q-1.04,0-2.06,0.66t-1.92,1.68t-1.6,2.12t-1.06,1.98q-0.72,3-1.44,5.78t-1.38,5.04t-1.2,3.7t-0.9,1.76q-0.2,0.2-0.48,0.2z M39.84,49.28q-1.72,0-2.44-1.06t-0.72-2.58q0-1.24,0.4-2.56t1.06-2.48t1.48-1.88t1.66-0.72q0.2,0,0.42,0.06t0.42,0.14q-0.36,0.32-0.86,1.18t-0.94,1.96t-0.74,2.18t-0.3,1.84q0,1.2,0.4,1.74t1.04,0.54q0.84,0,2-0.9t2.28-2.3q-1.12-0.92-1.74-2.42t-0.62-3.06q0-1.32,0.46-2.48t1.34-1.86t2.12-0.7q1.64,0,2.2,0.88t0.56,2.2q0,1.56-0.76,3.46t-1.92,3.66q0.72,0.4,1.52,0.4q0.64,0,1.44-0.26t1.58-0.9t1.26-1.72l0.48,0.4q-0.8,1.88-2.26,2.66t-2.78,0.78q-0.52,0-1-0.1t-0.92-0.3q-1.36,1.8-2.98,3t-3.14,1.2z M45.72,43.4q1-1.48,1.66-3.1t0.66-3.06q0-1.16-0.34-1.7t-0.86-0.54q-0.8,0-1.64,1.16t-0.84,2.92q0,1.16,0.34,2.34t1.02,1.98z M55.08,49.84q-1.72,0-2.64-1t-0.92-2.96q0-1.76,0.66-4.34t1.66-5.3q-0.4-0.08-0.76-0.14t-0.68-0.18l0-0.72q0.32,0.04,0.76,0.08t1,0.08q0.84-2.16,1.8-4.18t1.9-3.6t1.8-2.52t1.46-0.94q0.32,0,0.58,0.22t0.26,0.66q0,0.68-0.84,2.22t-2.08,3.66t-2.4,4.6l0.74,0l0.74,0q1.32,0,2.78-0.04t2.94-0.2l0,0.72q-2.2,0.24-3.94,0.36t-3.1,0.12l-0.3,0l-0.3,0q-0.92,2.12-1.56,4.36t-0.64,4.36q0,1.72,0.52,2.46t1.72,0.74q2.08,0,4.08-1.84t3.52-5l0.52,0.4q-0.96,2.24-2.42,4.04t-3.22,2.84t-3.64,1.04z M65.96,49.04q-1.56,0-2.32-0.98t-0.76-2.38q0-0.92,0.34-2.32t0.9-2.94t1.3-2.9t1.58-2.22t1.64-0.86q0.36,0,0.62,0.22t0.26,0.66q0,0.48-0.62,1.56t-1.46,2.48t-1.46,2.94t-0.62,2.94q0,1.44,0.48,1.92t1.48,0.48q1.36,0,2.9-1.36t3.26-4.76l0.36,0.4q-1.16,3.44-3.34,5.28t-4.54,1.84z M70.76,30.72q-0.64,0-1.14-0.32t-0.5-1q0-0.84,0.98-1.46t1.94-0.62q0.6,0,0.96,0.28t0.36,0.96q0,0.76-0.82,1.46t-1.78,0.7z M72.2,59.2q-0.4,0-0.92-0.26t-0.9-1.02t-0.38-2.24q0-1.76,0.6-4.58t1.64-6.22t2.4-6.98t2.94-6.92t3.24-6t3.26-4.22t3.04-1.56q0.84,0,1.1,0.52t0.26,1.24q0,1.72-0.94,3.76t-2.5,4.1t-3.44,3.92t-3.8,3.18q-0.2,0.48-0.38,0.98t-0.38,1.02q0.44,0.08,0.7,0.46t0.3,0.82q0.28,1.8,0.6,3.22t0.98,2.22t1.9,0.8q1.4,0,2.36-1.02t2.08-2.9l0.6,0.4q-1,2.4-2.54,3.48t-2.7,1.08q-0.72,0-1.5-0.36t-1.46-0.96q0,2.52-0.54,5t-1.42,4.52t-1.96,3.28t-2.24,1.24z M73.24,57.28q0.44,0,1-0.8t1.1-2.1t0.98-2.86t0.72-3.12t0.28-2.8t-0.32-2.26t-1.04-2.42q-1,3-1.8,5.8t-1.24,5.04t-0.44,3.6q0,1.92,0.76,1.92z M78.44,34.28q2.6-2.4,4.5-4.82t2.94-4.32t1.04-2.7q0-0.56-0.56-0.56q-1.04,0-2.36,1.7t-2.76,4.5t-2.8,6.2z M86.92,59.2q-1,0-1.76-0.54t-0.76-1.58q0-1.28,0.64-2.28t1.72-1.84t2.48-1.6t2.92-1.52q0.56-1.48,1.14-3.3t1.1-4.02q-1.28,2.08-2.74,3.58t-3.1,1.5q-0.76,0-1.5-0.34t-1.22-1.06t-0.48-1.84t0.38-2.6t0.94-2.88t1.16-2.32t1.04-0.92q0.16,0,0.58,0.12t0.8,0.34t0.38,0.46q-0.36,0.52-0.8,1.48t-0.86,2.14t-0.7,2.3t-0.28,1.92q0,0.72,0.32,1.16t1.12,0.44q0.76,0,1.7-0.74t1.88-1.9t1.74-2.48q0.12-0.44,0.22-0.9t0.18-0.94q0.12-0.56,0.58-1.3t1.46-0.74q0.2,0,0.4,0.02t0.44,0.1q0,0.64-0.38,2.38t-1.08,4.06t-1.66,4.76q1.88-0.72,3.68-2.38t2.92-4.42l0.52,0.4q-0.6,1.92-1.82,3.34t-2.74,2.44t-3,1.7q-1.04,2.56-2.26,4.8t-2.56,3.62t-2.74,1.38z M86.72,57.92q0.6,0,2.02-1.58t3.02-5.54q-1.64,0.88-3.04,1.74t-2.24,1.86t-0.84,2.32q0,0.32,0.24,0.76t0.84,0.44z  M113.36,51.48q0.24-1.4,0.56-2.86t0.82-3.28t1.22-4.22t1.8-5.68q-0.64,0.04-1.3,0.12t-1.34,0.16q0.04-1,0.94-1.58t2.38-0.86l0.58-1.74t0.62-1.88t0.68-2t0.74-2.14t0.78-2.28q0.16-0.44,0.36-1.1t0.2-1.26q0-0.32-0.1-0.44t-0.46-0.12q-0.96,0-1.86,0.78t-1.6,1.98t-1.1,2.48t-0.4,2.28q0,0.36,0.06,0.72t0.14,0.64q-1.32,0-1.86-0.66t-0.54-1.62q0-1.36,0.8-2.72t2.06-2.5t2.64-1.82t2.5-0.68q1.08,0,1.46,0.6t0.38,1.32q0,0.44-0.1,0.88t-0.22,0.84l-3.12,10.16q0.56-0.04,1.14-0.06t1.18-0.02q1.88,0,3.58,0.1t3.22,0.26q0.8-2.56,1.58-5.04t1.44-4.34t1.02-2.62q0.16-0.32,0.44-0.8t0.74-0.88t1.02-0.4q-0.56,1.48-1.28,3.78t-1.46,5.02t-1.46,5.44q0.8,0.04,1.54,0.1t1.46,0.06q-0.88,0.92-1.72,1.1t-1.64,0.18q-0.36,1.48-0.68,2.86t-0.56,2.62q-0.72,3.4-1.02,5.8t-0.3,3.88q0,0.48,0.02,0.82t0.06,0.62q-1.56-0.16-2.16-0.88t-0.6-2.24q0-1.04,0.24-2.62t0.72-3.42q0.32-1.2,0.88-3.18t1.24-4.22q-2.44,0-4.08,0.04t-2.84,0.08t-2.4,0.16q-0.72,2.32-1.44,4.6l-1.32,4.18t-1,3.22t-0.52,1.72q-0.4,1.36-1.26,1.96t-1.5,0.6z M140.16,49.76q-2.44,0-3.66-1.34t-1.22-3.3q0-1.8,0.9-3.8t2.4-3.76t3.3-2.86t3.56-1.1q0.92,0,1.7,0.48t0.78,1.96q0,1.52-0.9,2.86t-2.36,2.38t-3.2,1.7t-3.46,0.82q-0.08,0.4-0.12,0.76t-0.04,0.68q0,0.6,0.14,1.2t0.5,1.1t0.98,0.78t1.54,0.28q1.72,0,3.4-0.98t3.12-2.58t2.44-3.52l0.48,0.36q-1.08,2.4-2.74,4.16t-3.6,2.74t-3.94,0.98z M138.2,43.04q1.08-0.36,2.44-1.06t2.62-1.66t2.08-2.12t0.82-2.44q0-0.44-0.16-0.68t-0.68-0.24q-0.96,0-2.04,0.74t-2.08,1.94t-1.8,2.64t-1.2,2.88z M156.08,49.04q-1.36,0-2.14-0.72t-0.78-1.88q0-1.2,0.56-2.52t1.1-2.62t0.54-2.34q0-1.28-0.74-1.9t-1.5-1.14q-0.92,2.36-1.92,4.48t-1.64,3.2l-0.36-0.68q0.56-1.04,1.46-3.04t1.78-4.56q-0.4-0.4-0.4-0.96q0-1.2,0.68-1.96t1-0.76q0.44,0,0.5,0.38t0.06,0.58t-0.22,0.78t-0.22,0.7q0,0.56,0.62,1.02t1.42,1.04t1.42,1.4t0.62,2.1q0,1.2-0.5,2.44t-1,2.36t-0.5,1.96q0,0.72,0.36,0.96t0.84,0.24q0.96,0,1.98-0.6t1.98-1.52t1.72-1.94t1.12-1.9l0.52,0.4q-0.76,1.68-2.08,3.3t-2.94,2.66t-3.34,1.04z M165.84,49.28q-1.72,0-2.44-1.06t-0.72-2.58q0-1.24,0.4-2.56t1.06-2.48t1.48-1.88t1.66-0.72q0.2,0,0.42,0.06t0.42,0.14q-0.36,0.32-0.86,1.18t-0.94,1.96t-0.74,2.18t-0.3,1.84q0,1.2,0.4,1.74t1.04,0.54q0.84,0,2-0.9t2.28-2.3q-1.12-0.92-1.74-2.42t-0.62-3.06q0-1.32,0.46-2.48t1.34-1.86t2.12-0.7q1.64,0,2.2,0.88t0.56,2.2q0,1.56-0.76,3.46t-1.92,3.66q0.72,0.4,1.52,0.4q0.64,0,1.44-0.26t1.58-0.9t1.26-1.72l0.48,0.4q-0.8,1.88-2.26,2.66t-2.78,0.78q-0.52,0-1-0.1t-0.92-0.3q-1.36,1.8-2.98,3t-3.14,1.2z M171.72,43.4q1-1.48,1.66-3.1t0.66-3.06q0-1.16-0.34-1.7t-0.86-0.54q-0.8,0-1.64,1.16t-0.84,2.92q0,1.16,0.34,2.34t1.02,1.98z"/></g><g data-name="slogan" fill="url(#gradient-21)" data="id:306" transform="translate(192.03444847761259,198.98459785314702) scale(0.9370706095360529)"><path d="M0.12,48.28l-0.24-2.92l2.76-0.16q1.36-0.12,2.32-0.72t1.5-1.68t0.54-2.52l0-20.48l3.44,0l0,20.6q0,2.28-0.88,3.98t-2.52,2.64t-3.96,1.1z M23.88,48.36q-2.04,0-3.66-0.78t-2.56-2.14t-0.94-3.04q0-2.2,1.18-3.48t3.78-1.82t6.88-0.54l2.32,0l0,2.28l-2.2,0q-2.4,0-4.04,0.16t-2.64,0.54t-1.44,1.02t-0.44,1.64q0,1.64,1.2,2.6t3.16,0.96q1.68,0,2.98-0.78t2.08-2.1t0.78-2.96l0-4.56q0-2.4-1.16-3.5t-3.6-1.1q-1.72,0-3.42,0.5t-3.5,1.62l-1.12-2.48q1.12-0.76,2.5-1.28t2.86-0.8t2.88-0.28q2.56,0,4.3,0.8t2.66,2.48t0.92,4.32l0,12.36l-3.08,0l0-4.44l0.16,0q-0.44,1.4-1.38,2.48t-2.32,1.7t-3.14,0.62z M40.2,48l0-19.6l3.24,0l0,4.32l-0.24,0q0.52-1.4,1.46-2.46t2.26-1.64t2.92-0.58q2.52,0,4.12,1.24t2.08,3.48l-0.32,0q0.76-2.08,2.56-3.4t4.36-1.32q2.24,0,3.72,0.86t2.24,2.58t0.76,4.36l0,12.16l-3.36,0l0-11.96q0-2.6-0.94-3.88t-3.22-1.28q-1.64,0-2.86,0.78t-1.86,2.14t-0.64,3.2l0,11l-3.4,0l0-11.96q0-2.6-0.98-3.88t-3.14-1.28q-1.64,0-2.86,0.8t-1.86,2.18t-0.64,3.06l0,11.08l-3.4,0z  M96.44,48.36q-2.24,0-4.24-0.38t-3.68-1.1t-3-1.8l1.24-2.8q1.4,1.04,2.88,1.72t3.16,1t3.64,0.32q3.48,0,5.24-1.34t1.76-3.58q0-1.2-0.56-2.02t-1.78-1.38t-3.18-0.92l-4.36-0.88q-3.84-0.8-5.62-2.66t-1.78-4.86q0-2.48,1.34-4.34t3.74-2.88t5.48-1.02q1.96,0,3.68,0.38t3.2,1.16t2.6,1.86l-1.24,2.76q-1.76-1.64-3.78-2.38t-4.5-0.74q-2.08,0-3.68,0.62t-2.5,1.78t-0.9,2.76q0,1.84,1.14,2.9t3.86,1.62l4.32,0.88q4.08,0.8,6.02,2.54t1.94,4.66q0,2.36-1.26,4.2t-3.62,2.88t-5.56,1.04z M121.2,48.36q-3.2,0-5.52-1.22t-3.56-3.5t-1.24-5.44q0-3,1.18-5.28t3.34-3.58t5.04-1.3q2.8,0,4.74,1.2t2.98,3.38t1.04,5.22l0,1.2l-15.76,0l0-2.32l13.52,0l-0.68,0.64q0-3.2-1.48-4.98t-4.32-1.78q-1.96,0-3.38,0.9t-2.18,2.52t-0.76,3.82l0,0.32q0,2.44,0.82,4.08t2.42,2.5t3.84,0.86q1.68,0,3.32-0.5t3.12-1.7l1.16,2.4q-1.44,1.24-3.5,1.9t-4.14,0.66z M141.36,48.36q-1.56,0-3.06-0.3t-2.78-0.84t-2.2-1.3l1.08-2.44q1,0.76,2.16,1.26t2.4,0.72t2.44,0.22q2.36,0,3.62-0.78t1.26-2.18q0-1.16-0.78-1.8t-2.5-1l-3.88-0.72q-2.6-0.52-3.92-1.86t-1.32-3.46q0-1.76,0.96-3.08t2.76-2.04t4.2-0.72q1.36,0,2.72,0.28t2.54,0.82t1.98,1.34l-1.12,2.4q-0.8-0.72-1.82-1.22t-2.14-0.74t-2.2-0.24q-2.24,0-3.48,0.84t-1.24,2.24q0,1.16,0.74,1.82t2.34,0.98l3.8,0.76q2.8,0.56,4.18,1.82t1.38,3.42q0,1.8-1.02,3.1t-2.82,2t-4.28,0.7z M154.84,48l0-28.2l3.36,0l0,12.84l-0.28,0q0.88-2.2,2.78-3.4t4.34-1.2q2.4,0,3.98,0.86t2.38,2.6t0.8,4.34l0,12.16l-3.4,0l0-11.96q0-1.68-0.46-2.84t-1.46-1.74t-2.6-0.58q-1.8,0-3.16,0.78t-2.12,2.14t-0.76,3.12l0,11.08l-3.4,0z"/></g></svg>